<svg width="25" height="24" viewBox="0 0 25 24" fill="none" xmlns="http://www.w3.org/2000/svg">
<path d="M4.5 8.27083V4.85417C4.5 4.62763 4.59153 4.41037 4.75446 4.25018C4.91739 4.08999 5.13838 4 5.36879 4H8.84397" stroke="white" stroke-width="1.5" stroke-linecap="round" stroke-linejoin="round"/>
<path d="M15.7939 4H19.2691C19.4995 4 19.7205 4.08999 19.8835 4.25018C20.0464 4.41037 20.1379 4.62763 20.1379 4.85417V8.27083" stroke="white" stroke-width="1.5" stroke-linecap="round" stroke-linejoin="round"/>
<path d="M8.84397 19.3753H5.36879C5.13838 19.3753 4.91739 19.2853 4.75446 19.1251C4.59153 18.965 4.5 18.7477 4.5 18.5212V15.1045" stroke="white" stroke-width="1.5" stroke-linecap="round" stroke-linejoin="round"/>
<path d="M20.1379 15.1045V18.5212C20.1379 18.7477 20.0464 18.965 19.8835 19.1251C19.7205 19.2853 19.4995 19.3753 19.2691 19.3753H15.7939" stroke="white" stroke-width="1.5" stroke-linecap="round" stroke-linejoin="round"/>
<path d="M19.8863 19.1276L14.9255 14.2503M9.71277 9.12534L4.75195 4.24805L9.71277 9.12534ZM14.9255 9.12534L19.8863 4.24805L14.9255 9.12534ZM9.71277 14.2503L4.75195 19.1276L9.71277 14.2503Z" stroke="white" stroke-width="1.5" stroke-linecap="round" stroke-linejoin="round"/>
</svg>
