<svg width="91" height="90" viewBox="0 0 91 90" fill="none" xmlns="http://www.w3.org/2000/svg">
<path d="M46 13C39.5721 13 33.2886 14.9061 27.944 18.4772C22.5994 22.0484 18.4338 27.1242 15.9739 33.0628C13.5141 39.0014 12.8705 45.536 14.1245 51.8404C15.3785 58.1448 18.4738 63.9357 23.019 68.481C27.5642 73.0262 33.3552 76.1215 39.6596 77.3755C45.964 78.6295 52.4986 77.9859 58.4372 75.5261C64.3758 73.0662 69.4516 68.9006 73.0228 63.556C76.5939 58.2114 78.5 51.9279 78.5 45.5C78.5 36.8805 75.0759 28.614 68.981 22.519C62.886 16.4241 54.6195 13 46 13Z" stroke="white" stroke-width="1.5" stroke-linecap="round" stroke-linejoin="round"/>
<path d="M39.5 58.5V32.5L59 45.5L39.5 58.5Z" fill="#FFE711" stroke="#FFE711" stroke-width="1.48936" stroke-linejoin="round"/>
</svg>
