<svg width="25" height="24" viewBox="0 0 25 24" fill="none" xmlns="http://www.w3.org/2000/svg">
<path d="M9.43475 10.6502L15.1862 7.77656M7.10638 9.20904C7.62188 9.20904 8.12579 9.3618 8.55441 9.64798C8.98303 9.93417 9.3171 10.3409 9.51437 10.8169C9.71164 11.2928 9.76325 11.8165 9.66268 12.3217C9.56212 12.8269 9.31388 13.291 8.94937 13.6552C8.58486 14.0195 8.12045 14.2675 7.61486 14.368C7.10927 14.4685 6.58522 14.417 6.10896 14.2198C5.63271 14.0227 5.22565 13.6889 4.93925 13.2606C4.65286 12.8322 4.5 12.3287 4.5 11.8136C4.5 11.1228 4.7746 10.4603 5.26339 9.97189C5.75218 9.48345 6.41513 9.20904 7.10638 9.20904V9.20904ZM14.9255 17.0226C14.9255 17.5377 15.0784 18.0413 15.3648 18.4696C15.6512 18.8979 16.0582 19.2317 16.5345 19.4289C17.0107 19.626 17.5348 19.6776 18.0404 19.5771C18.546 19.4766 19.0104 19.2285 19.3749 18.8643C19.7394 18.5 19.9876 18.036 20.0882 17.5307C20.1888 17.0255 20.1372 16.5018 19.9399 16.0259C19.7426 15.55 19.4086 15.1432 18.9799 14.857C18.5513 14.5708 18.0474 14.4181 17.5319 14.4181C16.8407 14.4181 16.1777 14.6925 15.6889 15.1809C15.2001 15.6694 14.9255 16.3318 14.9255 17.0226ZM9.43475 12.9769L15.1862 15.8506L9.43475 12.9769ZM17.5319 9.20904C18.0474 9.20904 18.5513 9.05629 18.9799 8.7701C19.4086 8.48391 19.7426 8.07714 19.9399 7.60123C20.1372 7.12532 20.1888 6.60163 20.0882 6.09641C19.9876 5.59118 19.7394 5.1271 19.3749 4.76285C19.0104 4.3986 18.546 4.15054 18.0404 4.05005C17.5348 3.94955 17.0107 4.00113 16.5345 4.19826C16.0582 4.39539 15.6512 4.72922 15.3648 5.15753C15.0784 5.58584 14.9255 6.0894 14.9255 6.60452C14.9255 7.29528 15.2001 7.95775 15.6889 8.4462C16.1777 8.93464 16.8407 9.20904 17.5319 9.20904Z" stroke="white" stroke-width="1.5" stroke-linecap="round" stroke-linejoin="round"/>
</svg>
