<svg width="25" height="24" viewBox="0 0 25 24" fill="none" xmlns="http://www.w3.org/2000/svg">
<path d="M11.5 5V19L7.5 15H4.5C4.23478 15 3.98043 14.8946 3.79289 14.7071C3.60536 14.5196 3.5 14.2652 3.5 14V10C3.5 9.73478 3.60536 9.48043 3.79289 9.29289C3.98043 9.10536 4.23478 9 4.5 9H7.5L11.5 5Z" stroke="white" stroke-width="1.5" stroke-linecap="round" stroke-linejoin="round"/>
<path d="M18.8604 5.63965C20.5458 7.32715 21.4924 9.61464 21.4924 11.9996C21.4924 14.3847 20.5458 16.6721 18.8604 18.3596" stroke="white" stroke-width="1.5" stroke-linecap="round" stroke-linejoin="round"/>
<path d="M16.04 8.45996C16.5057 8.92442 16.8751 9.47617 17.1272 10.0836C17.3792 10.6911 17.509 11.3423 17.509 12C17.509 12.6576 17.3792 13.3088 17.1272 13.9163C16.8751 14.5237 16.5057 15.0755 16.04 15.54" stroke="white" stroke-width="1.5" stroke-linecap="round" stroke-linejoin="round"/>
</svg>
