<svg width="25" height="24" viewBox="0 0 25 24" fill="none" xmlns="http://www.w3.org/2000/svg">
<g clip-path="url(#clip0_4176_7002)">
<path d="M1.7002 22.8138L3.68331 18.2467C2.16612 16.093 1.48706 13.4596 1.77356 10.8408C2.06007 8.22197 3.29243 5.79772 5.23939 4.02299C7.18635 2.24827 9.71406 1.24507 12.3481 1.20166C14.9822 1.15826 17.5416 2.07763 19.546 3.78725C21.5504 5.49686 22.8619 7.87919 23.2346 10.4872C23.6072 13.0951 23.0153 15.7494 21.5699 17.9519C20.1245 20.1545 17.925 21.7538 15.3841 22.4498C12.8433 23.1458 10.1358 22.8906 7.76971 21.7321L1.7002 22.8138" stroke="white" stroke-width="1.5" stroke-linecap="round" stroke-linejoin="round"/>
<path d="M8.91113 9.59287C8.91113 9.75225 8.97445 9.9051 9.08714 10.0178C9.19984 10.1305 9.3527 10.1938 9.51208 10.1938C9.67146 10.1938 9.82431 10.1305 9.93701 10.0178C10.0497 9.9051 10.113 9.75225 10.113 9.59287V8.39098C10.113 8.2316 10.0497 8.07875 9.93701 7.96605C9.82431 7.85335 9.67146 7.79004 9.51208 7.79004C9.3527 7.79004 9.19984 7.85335 9.08714 7.96605C8.97445 8.07875 8.91113 8.2316 8.91113 8.39098V9.59287ZM8.91113 9.59287C8.91113 11.1867 9.54427 12.7152 10.6713 13.8422C11.7982 14.9692 13.3268 15.6023 14.9206 15.6023H16.1224C16.2818 15.6023 16.4347 15.539 16.5474 15.4263C16.6601 15.3136 16.7234 15.1607 16.7234 15.0013C16.7234 14.842 16.6601 14.6891 16.5474 14.5764C16.4347 14.4637 16.2818 14.4004 16.1224 14.4004H14.9206C14.7612 14.4004 14.6083 14.4637 14.4956 14.5764C14.3829 14.6891 14.3196 14.842 14.3196 15.0013C14.3196 15.1607 14.3829 15.3136 14.4956 15.4263C14.6083 15.539 14.7612 15.6023 14.9206 15.6023" stroke="white" stroke-width="1.5" stroke-linecap="round" stroke-linejoin="round"/>
</g>
<defs>
<clipPath id="clip0_4176_7002">
<rect width="24" height="24" fill="white" transform="translate(0.5)"/>
</clipPath>
</defs>
</svg>
