<?xml version="1.0" encoding="UTF-8"?>
<svg xmlns="http://www.w3.org/2000/svg" width="129" height="70" viewBox="0 0 129 70" fill="none">
  <g clip-path="url(#clip0_507_6287)">
    <path fill-rule="evenodd" clip-rule="evenodd" d="M27.6566 0.168545C27.8252 0.843244 27.2068 0.730794 26.9819 1.40549C26.5321 2.52999 26.9256 5.34124 25.2389 5.06011C23.2148 4.66654 24.4517 -1.01218 27.6566 0.168545Z" fill="#289548"></path>
    <path fill-rule="evenodd" clip-rule="evenodd" d="M22.0908 3.48584C23.2715 3.76696 24.2274 4.38544 24.3398 5.73484C23.6651 5.56616 23.2153 6.01596 22.9342 5.73484C22.7655 4.94769 22.4844 4.10431 22.0908 3.48584Z" fill="#289548"></path>
    <path fill-rule="evenodd" clip-rule="evenodd" d="M29.5683 2.75488C30.0181 2.75488 30.243 3.03601 30.243 3.42958C30.0744 3.42958 30.1306 3.65448 30.0744 3.76693C29.5683 3.93561 29.6246 3.54203 29.231 3.59826C29.0623 3.09223 29.5121 3.09223 29.5683 2.75488Z" fill="#A2C037"></path>
    <path fill-rule="evenodd" clip-rule="evenodd" d="M31.4808 3.65439C31.2559 3.87929 30.8624 3.87929 30.6375 3.65439C30.525 2.92347 31.7057 2.64235 31.4808 3.65439Z" fill="#A2C037"></path>
    <path fill-rule="evenodd" clip-rule="evenodd" d="M29.0629 3.99191C28.5569 4.04814 28.1071 3.99191 28.2196 3.48589C28.5007 3.14854 29.2316 3.26099 29.0629 3.99191Z" fill="#A2C037"></path>
    <path fill-rule="evenodd" clip-rule="evenodd" d="M27.151 3.48564C27.7133 3.42942 27.9944 3.71054 27.9944 4.16034C27.8819 4.32902 27.5446 4.27279 27.4884 4.49769C27.0948 4.44147 26.7575 3.82299 27.151 3.48564Z" fill="#A2C037"></path>
    <path fill-rule="evenodd" clip-rule="evenodd" d="M32.2111 3.48584C32.2111 3.71074 32.2111 3.93564 32.2111 4.16054C31.5364 4.32921 31.5364 3.31716 32.2111 3.48584Z" fill="#A2C037"></path>
    <path fill-rule="evenodd" clip-rule="evenodd" d="M26.645 8.32129C26.9823 8.32129 27.3197 8.32129 27.7132 8.32129C27.7132 8.88354 27.4883 9.16466 27.3759 9.55824C26.9261 9.22089 26.2514 8.99599 26.645 8.32129Z" fill="white"></path>
    <path fill-rule="evenodd" clip-rule="evenodd" d="M60.9418 9.22062C59.986 9.67042 57.2872 8.4897 55.7129 9.3893C56.2189 7.70255 59.9298 8.65837 60.9418 9.22062Z" fill="#289548"></path>
    <path fill-rule="evenodd" clip-rule="evenodd" d="M61.9545 8.8833C61.7296 9.67045 61.5047 10.4014 60.8863 10.7949C60.3802 10.5138 61.1112 8.8833 61.9545 8.8833Z" fill="#A2C037"></path>
    <path fill-rule="evenodd" clip-rule="evenodd" d="M56.2195 9.72669C59.8178 8.88331 61.2797 11.7508 61.9544 14.4496C58.862 14.1122 57.4564 12.0881 56.0508 10.1203C57.0628 10.0078 58.356 11.1885 59.368 11.6946C59.2556 10.795 57.5689 9.95159 56.2195 9.72669Z" fill="#289548"></path>
    <path fill-rule="evenodd" clip-rule="evenodd" d="M62.2919 9.72656C62.573 9.89524 62.8542 10.0077 62.7979 10.4013C62.573 11.076 62.0108 11.4695 61.2236 11.6382C61.5048 10.9073 62.067 10.5137 62.2919 9.72656Z" fill="#A2C037"></path>
    <path fill-rule="evenodd" clip-rule="evenodd" d="M27.32 10.064C27.9947 10.1202 27.9947 10.7949 28.7256 10.7387C28.2758 10.9636 27.6574 11.0198 27.1513 11.2447C26.814 10.9636 27.2076 10.4575 27.32 10.064Z" fill="white"></path>
    <path fill-rule="evenodd" clip-rule="evenodd" d="M63.36 12.8754C62.7977 12.8192 62.9664 11.9758 62.5166 11.8072C62.9664 10.6827 64.1471 12.7068 63.36 12.8754Z" fill="#289548"></path>
    <path fill-rule="evenodd" clip-rule="evenodd" d="M23.3843 23.4456C22.9345 20.9717 20.5168 18.1604 23.3843 16.6424C23.2156 16.4175 23.2156 15.9677 22.8782 15.9677C22.1473 16.4175 22.0349 17.4857 21.6413 18.2167C20.1232 17.3171 21.81 15.5179 22.4847 14.7307C21.1353 14.056 21.5288 16.6424 20.2357 16.6424C20.2919 15.3492 20.9104 14.6183 21.4726 13.8311C21.3602 13.6062 21.1915 13.3813 20.9666 13.3251C19.8421 13.9998 20.6292 16.5861 19.0549 16.811C19.0549 16.0239 19.5047 15.6303 19.3923 14.7307C18.2116 14.7307 18.9987 15.9114 18.7176 16.9797C16.8059 17.9918 15.7377 19.791 14.1634 21.1404C13.8822 17.9355 10.059 12.9315 15.7377 12.7629C16.3561 13.2689 16.9746 13.8311 17.4806 14.5058C18.3802 10.6263 25.2397 11.0199 24.4525 16.2488C25.2959 16.305 25.7457 15.9677 26.7015 16.0801C29.8501 18.4416 27.6573 24.0078 23.3843 23.4456Z" fill="#3A59A1"></path>
    <path fill-rule="evenodd" clip-rule="evenodd" d="M64.428 13.55C63.7533 13.6062 62.9661 14.1684 62.3477 13.7186C62.7412 13.4937 64.2031 12.4255 64.428 13.55Z" fill="#A2C037"></path>
    <path fill-rule="evenodd" clip-rule="evenodd" d="M64.2591 14.4494C64.4278 15.1804 63.1346 15.0117 62.8535 14.7868C62.8535 14.2245 63.6969 14.5057 64.2591 14.4494Z" fill="#A2C037"></path>
    <path fill-rule="evenodd" clip-rule="evenodd" d="M63.5287 15.293C65.103 16.5299 63.5287 20.5219 61.2797 18.2729C60.4925 16.305 62.1231 15.6303 63.5287 15.293ZM61.9544 17.5982C62.4042 17.542 62.5166 17.1484 62.6291 16.7548C62.0106 16.5861 61.5608 17.1484 61.9544 17.5982Z" fill="#C20D19"></path>
    <path fill-rule="evenodd" clip-rule="evenodd" d="M62.6849 16.6987C62.5724 17.0922 62.46 17.4858 62.0102 17.542C61.5604 17.1485 62.0102 16.5862 62.6849 16.6987Z" fill="white"></path>
    <path fill-rule="evenodd" clip-rule="evenodd" d="M61.6171 18.7789C61.7858 19.4536 60.83 19.3973 60.5488 19.1162C60.83 18.6664 61.1673 18.6102 61.6171 18.7789Z" fill="#289548"></path>
    <path fill-rule="evenodd" clip-rule="evenodd" d="M20.0106 17.3735C15.0628 18.7792 11.2957 24.7952 13.9383 30.5864C15.2877 29.2932 16.4122 26.7631 18.2676 26.5944C17.874 28.3936 16.6371 29.3494 16.5246 31.486C18.9985 30.9237 22.8218 26.6506 22.5969 23.502C22.4845 21.1406 20.5728 19.6225 20.0106 17.3735ZM17.7616 22.2651C17.7053 21.6466 17.9302 21.3093 18.0989 20.8595C16.2997 21.478 15.6812 23.3334 14.613 24.6828C15.0628 22.2651 16.862 19.6225 19.5045 18.7792C20.0668 19.229 20.0668 20.2972 20.0106 21.3655C19.111 19.9599 18.6612 22.1527 17.7616 22.2651Z" fill="#F5D631"></path>
    <path fill-rule="evenodd" clip-rule="evenodd" d="M6.79749 22.7709C6.68504 21.9275 6.01034 21.0841 4.54849 21.5339C0.219173 22.8833 7.30351 27.1002 6.79749 22.7709ZM6.06656 23.1644C5.33564 23.3331 5.22319 22.6022 5.56054 22.3211C5.72921 22.3211 5.89789 22.3211 6.06656 22.3211C6.06656 22.546 6.06656 22.8271 6.06656 23.1644Z" fill="#F5D631"></path>
    <path fill-rule="evenodd" clip-rule="evenodd" d="M29.231 23.1646C25.5202 27.0441 25.9137 35.9838 18.2671 35.3654C18.8856 34.7469 20.5161 35.1967 20.6848 34.1284C20.4037 33.5099 19.4479 33.6224 18.9418 33.285C19.6165 32.1043 21.8093 31.5983 21.3595 29.7991C20.1226 30.3051 19.2792 31.2047 18.0422 31.7107C17.5924 31.7107 17.8173 31.5983 17.8736 31.3734C19.5041 30.2489 20.6848 29.1244 21.8655 27.3814C22.5402 26.4256 22.9338 25.02 23.6085 24.4015C24.9017 23.277 27.0945 23.1646 29.231 23.1646Z" fill="#3A59A1"></path>
    <path fill-rule="evenodd" clip-rule="evenodd" d="M6.06677 25.9193C5.05472 24.7948 2.86195 24.7386 2.7495 26.4253C2.63705 28.5057 6.46035 29.1804 6.06677 25.9193ZM5.2234 26.9876C4.60493 27.1 4.43625 26.7065 4.5487 26.1442C4.71738 26.1442 4.88605 26.1442 5.05473 26.1442C5.16718 26.3129 5.27962 26.594 5.2234 26.9876Z" fill="#F5D631"></path>
    <path fill-rule="evenodd" clip-rule="evenodd" d="M28.3877 34.6343C28.5564 34.6905 28.725 34.803 28.725 34.9716C28.0503 36.6021 26.9258 37.7266 25.7451 38.7949C26.1949 36.9957 26.8696 35.4214 28.3877 34.6343Z" fill="#289548"></path>
    <path fill-rule="evenodd" clip-rule="evenodd" d="M25.2389 34.8032C25.4076 34.8032 25.5762 34.8032 25.7449 34.8032C26.1947 36.0402 24.8453 36.8835 24.9015 38.2892C24.0019 37.3896 24.9578 35.6466 25.2389 34.8032Z" fill="#289548"></path>
    <path fill-rule="evenodd" clip-rule="evenodd" d="M30.4678 37.052C29.0622 37.6143 27.8253 38.4014 26.6445 39.1323C26.8132 37.7829 28.8935 36.8833 29.9618 35.8151C30.6365 35.7588 30.4116 36.4898 30.4678 37.052Z" fill="#289548"></path>
    <path fill-rule="evenodd" clip-rule="evenodd" d="M33.7859 37.7828C32.7738 39.6945 28.8943 38.064 27.5449 39.8632C28.0509 38.57 31.9867 36.1523 33.7859 37.7828Z" fill="#A2C037"></path>
    <path fill-rule="evenodd" clip-rule="evenodd" d="M35.6967 39.6946C35.6404 41.3813 33.279 40.0882 31.7047 40.2006C30.3553 40.3131 29.2308 40.9878 28.2188 41.044C29.7368 39.8633 33.1103 38.795 35.6967 39.6946Z" fill="#A2C037"></path>
    <path fill-rule="evenodd" clip-rule="evenodd" d="M32.2113 41.2691C31.8177 42.6747 29.7374 41.3815 28.5566 41.9438C29.1751 41.1004 31.1992 40.7068 32.2113 41.2691Z" fill="#289548"></path>
    <path fill-rule="evenodd" clip-rule="evenodd" d="M3.98633 41.1001C4.49235 41.2125 4.88593 41.3812 5.39195 41.4374C5.16705 41.7748 5.11083 42.337 4.54858 42.2808C4.155 42.1121 4.09878 41.5499 3.98633 41.1001Z" fill="white"></path>
    <path fill-rule="evenodd" clip-rule="evenodd" d="M31.1425 42.6185C30.9176 43.6868 28.1625 43.5181 27.8252 42.6185C29.1184 42.7872 30.1304 42.1687 31.1425 42.6185Z" fill="#289548"></path>
    <path fill-rule="evenodd" clip-rule="evenodd" d="M8.53999 43.1806C8.59622 43.5742 8.70867 43.9116 9.04602 44.024C8.82112 44.3051 7.92152 43.7991 7.47172 44.1927C7.35927 43.4055 7.6404 43.012 8.53999 43.1806Z" fill="white"></path>
    <path fill-rule="evenodd" clip-rule="evenodd" d="M22.9899 43.6868C22.5963 43.743 22.3152 43.6868 22.1465 43.5181C22.1465 42.9558 23.0461 43.1245 22.9899 43.6868Z" fill="white"></path>
    <path fill-rule="evenodd" clip-rule="evenodd" d="M21.0783 44.3613C21.3594 44.6425 21.8654 44.6987 21.9217 45.2047C21.6405 45.2609 21.6405 45.036 21.4156 45.036C20.8534 44.9236 21.0783 45.542 20.5723 45.3734C20.6285 44.9798 21.1907 45.036 21.0783 44.3613Z" fill="white"></path>
    <path fill-rule="evenodd" clip-rule="evenodd" d="M34.2915 46.329C35.0786 45.7105 36.4843 45.0921 37.4401 45.9916C37.5525 46.6663 38.0023 47.2286 37.6088 47.9033C38.1148 47.9033 38.677 47.9033 39.1831 47.9033C39.5766 48.3531 40.1951 49.2527 39.6891 49.9836C39.9702 50.4896 40.8136 50.4896 41.2634 50.827C41.5445 51.839 41.2634 52.1764 40.7574 52.7386C39.6329 52.57 38.4521 52.5137 37.4401 52.2326C37.7212 51.8953 38.3959 52.0077 38.2835 51.3892C38.3397 50.4334 37.665 50.2647 36.7092 50.321C36.9341 49.4214 36.8778 48.9153 36.2031 48.578C35.6971 48.5218 35.6409 48.9716 35.1349 48.9153C35.3035 48.0157 34.7975 47.8471 34.4602 47.5097C33.9541 47.4535 33.5606 47.5659 33.3919 47.8471C32.9983 47.3973 32.8296 46.7788 32.1549 46.6101C31.4802 46.6663 31.1429 47.1161 30.918 47.6784C30.5806 47.2848 30.2995 46.7788 29.6811 46.6101C28.7252 46.7226 28.3317 47.4535 28.4441 48.6904C24.5646 47.2848 29.175 42.0559 30.6931 46.1041C30.7493 43.9676 34.6288 43.6864 34.2915 46.329Z" fill="#F5D631"></path>
    <path fill-rule="evenodd" clip-rule="evenodd" d="M32.3795 47.0041C32.5482 47.3976 32.998 47.5663 32.8855 48.241C32.492 48.5784 31.9297 48.0723 31.1426 48.241C31.3113 47.5663 31.3675 46.8354 32.3795 47.0041Z" fill="#C20D19"></path>
    <path fill-rule="evenodd" clip-rule="evenodd" d="M29.0624 47.1727C30.9179 46.9478 30.5243 48.4096 31.1428 49.0843C32.5484 47.2289 34.5163 50.8273 31.6488 50.49C31.4239 50.1526 31.199 49.8153 31.1428 49.253C30.6367 49.4779 31.3114 49.8715 31.1428 50.3213C30.9179 50.3213 30.693 50.3213 30.4681 50.3213C30.5243 50.6586 30.8616 50.7711 30.8054 51.1647C30.4118 50.3775 29.3436 50.2088 29.2311 49.0843C29.2311 48.6345 29.5122 48.4096 29.9058 48.4096C29.5685 47.7912 29.1749 48.9157 28.8375 48.4096C28.7251 47.7912 29.1749 47.7349 29.0624 47.1727Z" fill="#C20D19"></path>
    <path fill-rule="evenodd" clip-rule="evenodd" d="M19.6733 45.9355C18.3802 46.2729 18.6613 48.1283 18.099 49.2528C18.1553 48.0159 18.1553 46.7789 17.7617 45.9355C17.593 45.9355 17.4243 45.9355 17.2557 45.9355C16.6372 47.5661 17.9304 48.5781 17.7617 50.2649C18.6051 49.3653 19.1673 47.7347 19.6733 45.9355Z" fill="#289548"></path>
    <path fill-rule="evenodd" clip-rule="evenodd" d="M19.6737 47.3413C19.1677 48.1285 18.8866 49.0843 18.6055 50.1526C19.1677 49.5341 20.742 47.9598 19.6737 47.3413Z" fill="#289548"></path>
    <path fill-rule="evenodd" clip-rule="evenodd" d="M34.6292 49.4216C34.2356 49.253 33.5609 49.3092 33.2236 49.0843C33.2236 48.7469 32.9987 48.6907 33.0549 48.4096C33.9545 47.3975 35.5288 48.3534 34.6292 49.4216Z" fill="#C20D19"></path>
    <path fill-rule="evenodd" clip-rule="evenodd" d="M24.1708 51.7267C24.0583 51.1644 22.7089 50.3773 21.3595 50.8833C22.8214 46.6665 29.4559 47.9034 30.2993 51.7267C30.468 51.6142 30.468 51.3331 30.8053 51.3893C31.2551 52.5138 30.4117 52.6263 30.6366 53.9757C29.1186 53.6946 28.0503 53.2448 26.476 53.4697C25.6326 53.5821 24.9017 54.3693 24.227 54.313C22.7089 54.2568 22.4278 52.7387 21.2471 51.8954C21.978 51.1082 23.1587 51.1644 24.1708 51.7267Z" fill="#F5D631"></path>
    <path fill-rule="evenodd" clip-rule="evenodd" d="M63.191 48.5781C63.3597 48.5781 63.5284 48.5781 63.697 48.5781C65.8898 52.289 62.9661 56.8432 59.7051 57.799C61.8978 56.2247 63.9782 54.3131 63.5284 50.4898C63.4721 49.7588 62.8537 49.4215 63.191 48.5781Z" fill="#289548"></path>
    <path fill-rule="evenodd" clip-rule="evenodd" d="M64.9342 49.2531C65.6089 49.0844 65.2716 50.3213 65.1029 50.49C64.6531 50.2651 64.7655 49.7029 64.9342 49.2531Z" fill="#A2C037"></path>
    <path fill-rule="evenodd" clip-rule="evenodd" d="M33.0547 50.8274C33.1671 50.3214 33.5045 50.0965 33.5607 49.5905C35.9222 49.478 34.2354 52.5142 33.0547 50.8274Z" fill="#C20D19"></path>
    <path fill-rule="evenodd" clip-rule="evenodd" d="M43.3433 50.4897C43.5119 50.4897 43.6806 50.4897 43.8493 50.4897C45.4798 51.6705 44.4678 55.1002 43.0059 55.7187C42.8935 54.3693 43.7931 52.2327 43.3433 50.4897Z" fill="#289548"></path>
    <path fill-rule="evenodd" clip-rule="evenodd" d="M66.3392 50.6584C66.3392 51.3893 65.4958 51.3331 64.9336 51.5018C65.1023 50.9957 65.777 50.2648 66.3392 50.6584Z" fill="#A2C037"></path>
    <path fill-rule="evenodd" clip-rule="evenodd" d="M35.8661 52.4013C35.1352 52.5138 34.7978 52.1764 34.4605 51.8953C34.1231 50.4897 36.8781 50.3772 35.8661 52.4013Z" fill="#C20D19"></path>
    <path fill-rule="evenodd" clip-rule="evenodd" d="M31.4806 51.333C31.6493 51.333 31.8179 52.0639 31.9866 51.5017C32.4364 51.839 32.0428 52.8511 31.3119 52.57C31.3119 52.1202 31.2557 51.5579 31.4806 51.333Z" fill="#C20D19"></path>
    <path fill-rule="evenodd" clip-rule="evenodd" d="M62.5161 51.3332C62.7972 51.277 62.7972 51.5019 63.0221 51.5019C63.0221 52.9638 62.4598 53.9758 62.1787 55.1565C61.8414 54.2007 62.4036 52.514 62.5161 51.3332Z" fill="#A2C037"></path>
    <path fill-rule="evenodd" clip-rule="evenodd" d="M67.0144 51.5018C66.4521 52.2327 65.4401 52.5138 64.5967 52.9074C65.1027 52.2327 66.0585 51.2207 67.0144 51.5018Z" fill="#A2C037"></path>
    <path fill-rule="evenodd" clip-rule="evenodd" d="M11.6324 53.2446C12.8131 52.9073 13.1505 51.5579 12.1384 50.827C10.283 50.4334 10.6766 52.2888 9.15851 52.2326C9.15851 52.0639 8.98984 52.0077 8.98984 51.8952C8.93361 51.5579 9.15851 51.5017 9.15851 51.2205C10.2268 51.3892 10.5079 50.827 11.2388 50.7145C11.4075 49.7025 10.9015 49.3089 10.5641 48.8029C9.38341 48.6342 8.82116 49.0278 8.48381 49.6462C8.48381 50.4334 9.10229 50.6583 8.65249 51.3892C8.14646 51.1081 7.97779 51.4454 7.58422 51.2205C8.25891 50.7145 8.48381 49.59 7.92156 48.8029C5.11032 47.6222 5.22277 51.5579 7.41554 51.6141C6.90952 51.6703 6.85329 52.2326 6.17859 52.1201C6.29104 51.2205 5.72879 51.0519 5.50389 50.5458C3.03 49.7025 3.14245 53.1884 4.99787 53.1322C5.56012 53.1322 5.44767 52.345 6.40349 52.4575C6.34727 53.0197 6.79707 53.3009 6.40349 53.6944C5.50389 53.4133 4.8292 53.4133 4.32317 53.9756C4.26695 54.594 4.32317 55.1001 4.49185 55.5499C4.94164 55.7185 5.56012 55.7748 6.23482 55.7185C6.74084 55.3812 6.68462 54.4254 6.90952 53.8069C7.19064 54.2567 8.03401 54.088 8.14646 54.6503C6.85329 54.7627 6.29104 56.5619 7.47177 57.2366C9.88944 57.5177 9.49586 55.325 8.54004 54.2567C8.76494 53.9193 8.93361 53.4695 9.60831 53.582C8.25891 56.3932 12.4758 57.1804 11.8573 53.9193C11.4075 52.6262 9.21474 54.088 9.27096 52.5137C10.283 51.8952 10.6766 53.2446 11.6324 53.2446ZM7.80911 52.7386C7.80911 52.5699 7.80911 52.4013 7.80911 52.2326C8.14646 52.1764 8.25891 52.345 8.48381 52.4013C8.48381 52.6824 8.20269 52.7948 7.80911 52.7386Z" fill="#F5D631"></path>
    <path fill-rule="evenodd" clip-rule="evenodd" d="M34.2916 52.4014C34.2916 53.1885 33.5607 53.1885 33.0547 53.4696C33.4483 53.0761 33.6732 52.57 34.2916 52.4014Z" fill="#C20D19"></path>
    <path fill-rule="evenodd" clip-rule="evenodd" d="M42.2753 56.8996C38.3396 56.9559 37.5524 53.1326 32.8857 54.482C34.6849 51.6707 43.0062 51.7832 42.2753 56.8996Z" fill="#F5D631"></path>
    <path fill-rule="evenodd" clip-rule="evenodd" d="M67.5204 52.739C67.0144 53.8073 65.3276 53.6386 64.2031 54.1447C65.1589 53.6386 66.171 52.233 67.5204 52.739Z" fill="#A2C037"></path>
    <path fill-rule="evenodd" clip-rule="evenodd" d="M61.1111 52.7388C62.067 53.6946 60.83 55.3251 60.9425 56.5621C60.6051 55.6062 60.6613 53.5259 61.1111 52.7388Z" fill="#A2C037"></path>
    <path fill-rule="evenodd" clip-rule="evenodd" d="M32.8857 53.4136C32.8857 54.2007 32.4921 54.4818 32.0423 54.8192C29.9058 54.5381 31.5363 51.783 32.8857 53.4136Z" fill="#C20D19"></path>
    <path fill-rule="evenodd" clip-rule="evenodd" d="M45.0868 53.0764C45.368 53.0202 45.368 53.2451 45.5929 53.2451C45.5929 53.9198 45.2555 54.2009 44.7495 54.3134C44.637 53.6949 45.0868 53.6387 45.0868 53.0764Z" fill="#A2C037"></path>
    <path fill-rule="evenodd" clip-rule="evenodd" d="M45.255 54.8193C44.9738 54.3695 47.6726 52.233 47.1666 54.1446C46.6044 54.482 45.761 54.482 45.255 54.8193Z" fill="#A2C037"></path>
    <path fill-rule="evenodd" clip-rule="evenodd" d="M25.9143 57.6303C25.1834 57.9676 24.4525 58.3612 24.0027 59.0359C21.4163 53.9194 29.1191 52.4014 31.4806 55.2126C35.4726 55.0439 39.1272 59.8793 36.2035 62.8592C34.6292 62.2407 34.5167 60.2166 33.7858 58.8672C33.0549 60.7226 35.4163 61.8471 35.1914 63.1965C31.7617 62.9716 30.3561 60.0479 31.1995 56.562C30.2999 58.7548 26.9826 61.1724 24.2276 59.3732C24.5649 58.5861 25.4645 58.305 25.9143 57.6303Z" fill="#3A59A1"></path>
    <path fill-rule="evenodd" clip-rule="evenodd" d="M59.7048 53.9756C59.8735 53.9756 60.0422 53.9756 60.2108 53.9756C60.2671 55.4937 60.0984 56.7306 59.1426 57.2929C59.5924 56.3933 59.3675 54.8752 59.7048 53.9756Z" fill="#A2C037"></path>
    <path fill-rule="evenodd" clip-rule="evenodd" d="M66.5087 54.6503C66.1714 55.6062 64.5971 55.2688 63.6975 55.7186C63.6413 55.1564 65.5529 54.2568 66.5087 54.6503Z" fill="#A2C037"></path>
    <path fill-rule="evenodd" clip-rule="evenodd" d="M21.5844 54.6504C21.3033 55.1002 20.9098 55.4938 20.7411 56.056C20.8535 56.562 21.1347 55.8873 21.4158 56.056C20.1226 58.9235 24.3395 60.8914 22.0905 62.5219C19.9539 62.0159 20.4037 59.0922 20.5162 56.7869C19.5604 58.9235 19.729 63.8151 21.7531 64.0962C23.6648 64.3773 23.7772 61.7347 25.4077 61.2849C27.2632 61.6785 26.0824 64.2649 25.4077 65.1082C18.717 68.5942 16.8053 56.6745 21.5844 54.6504Z" fill="#289548"></path>
    <path fill-rule="evenodd" clip-rule="evenodd" d="M41.4318 57.2932C41.7129 58.0241 40.4197 58.755 39.8575 58.8675C37.1587 59.3173 35.5844 55.5502 33.3916 55.0442C37.2711 53.4137 38.6767 57.2932 41.4318 57.2932Z" fill="#F5D631"></path>
    <path fill-rule="evenodd" clip-rule="evenodd" d="M47.3357 54.8194C47.1671 55.4378 46.155 55.2692 45.5928 55.4941C45.7052 54.8194 46.7735 54.482 47.3357 54.8194Z" fill="#A2C037"></path>
    <path fill-rule="evenodd" clip-rule="evenodd" d="M15.6814 60.3856C15.4565 57.4619 18.0991 55.8314 20.4043 54.8193C18.5489 56.4499 18.0428 59.3736 15.6814 60.3856Z" fill="#A2C037"></path>
    <path fill-rule="evenodd" clip-rule="evenodd" d="M64.428 56.3935C64.3718 57.2369 63.2473 57.0682 62.3477 57.0682C62.8537 56.6746 63.3597 56.2811 64.428 56.3935Z" fill="#A2C037"></path>
    <path fill-rule="evenodd" clip-rule="evenodd" d="M17.9296 58.811C18.6043 59.3733 17.9858 60.2167 18.0983 60.8914C18.3232 62.7468 20.291 64.0962 19.6726 66.1203C16.1304 67.0199 16.524 60.1042 17.9296 58.811Z" fill="#A2C037"></path>
    <path fill-rule="evenodd" clip-rule="evenodd" d="M30.974 62.8594C30.0181 63.7027 29.0623 64.5461 27.3193 64.6023C27.488 62.9156 29.9057 63.5341 30.974 62.8594Z" fill="#289548"></path>
    <path fill-rule="evenodd" clip-rule="evenodd" d="M31.48 63.8716C30.4679 64.6587 29.5683 66.2893 28.1627 66.1206C28.0502 64.7712 30.0743 64.2652 31.48 63.8716Z" fill="#289548"></path>
    <path fill-rule="evenodd" clip-rule="evenodd" d="M29.0625 67.5262C29.1187 65.5021 31.1428 65.5583 32.0424 64.3776C32.3235 64.3214 32.3798 64.49 32.3798 64.7149C31.199 65.5583 30.693 67.7511 29.0625 67.5262Z" fill="#289548"></path>
    <path fill-rule="evenodd" clip-rule="evenodd" d="M32.5488 64.6021C32.8299 65.4454 32.2677 69.8872 30.2998 68.4253C30.5809 66.6824 32.0428 66.1201 32.5488 64.6021Z" fill="#A2C037"></path>
    <path fill-rule="evenodd" clip-rule="evenodd" d="M33.617 65.2769C33.9544 66.1202 33.7857 68.2568 33.111 69.1002C31.0869 68.4817 33.3359 66.3451 33.617 65.2769Z" fill="#A2C037"></path>
    <path fill-rule="evenodd" clip-rule="evenodd" d="M34.4604 65.6143C34.9665 66.4014 35.2476 68.9315 34.4604 69.4376C33.2235 68.6504 34.6291 66.9637 34.4604 65.6143Z" fill="#289548"></path>
    <path fill-rule="evenodd" clip-rule="evenodd" d="M36.709 65.7832C37.4399 66.6828 38.7331 68.3133 38.1146 69.4378C36.9901 69.6065 36.709 67.4137 36.709 65.7832Z" fill="#289548"></path>
    <path fill-rule="evenodd" clip-rule="evenodd" d="M35.3037 65.9517C35.8097 66.5701 36.9904 68.8191 35.8097 69.4376C34.8539 69.1565 35.5286 67.1324 35.3037 65.9517Z" fill="#289548"></path>
    <path fill-rule="evenodd" clip-rule="evenodd" d="M45.761 7.14062C45.9297 7.92777 44.524 8.71492 43.6807 9.05227C45.4799 9.89565 46.4919 8.77115 48.2349 8.37757C47.8975 8.82737 47.3915 9.05227 46.8293 9.22095C48.01 10.1205 49.9778 8.99605 51.7208 8.8836C51.3835 9.44585 50.4839 9.38962 49.8092 9.5583C50.3714 10.1205 51.4959 10.0643 52.2268 10.4017C50.6525 10.5141 48.4036 9.83942 46.4919 9.72697C46.9979 10.3454 47.8413 10.5703 48.5722 10.9639C47.0542 10.5703 44.6927 9.27717 42.6686 9.72697C43.7369 10.3454 44.8052 10.9639 45.8172 11.6386C44.018 11.4699 42.275 9.05227 39.1827 10.0643C39.9698 11.1888 41.6566 11.4137 42.3313 12.6507C40.7007 12.1446 38.8453 9.16472 36.9337 11.0764C37.271 11.3575 38.0582 11.245 38.3393 11.5824C37.3272 11.7511 35.7529 11.3013 35.3594 11.9197C36.2027 10.0081 38.9015 10.0081 39.52 7.92777C39.9698 8.49002 39.014 9.1085 38.8453 9.67075C40.4758 9.38962 41.3192 8.32135 42.3313 7.42175C42.5562 8.15267 41.2068 8.8836 40.5883 9.3334C42.5562 9.61452 44.7489 8.49002 45.761 7.14062Z" fill="white"></path>
    <path fill-rule="evenodd" clip-rule="evenodd" d="M41.7694 6.07195C42.7252 5.9595 43.7372 4.32898 45.2553 4.1603C45.3678 5.0599 44.918 5.34102 44.7493 5.90327C45.4802 5.79082 46.6047 4.6101 47.7292 4.32898C47.7292 4.835 47.7292 5.39725 47.7292 5.90327C48.7975 5.56592 50.428 5.79082 51.5525 5.56592C51.7774 6.4093 50.9902 6.29685 51.0465 6.97155C52.171 7.3089 53.5766 7.36512 54.5324 7.81492C54.4762 8.60207 53.8577 8.88319 53.2955 9.22054C54.42 9.83902 55.3758 10.6262 56.4441 11.3009C55.6569 12.3129 53.8577 12.3129 52.1147 12.3691C51.7774 12.594 52.677 13.0438 52.7894 13.4374C52.1147 13.9997 50.6529 14.0559 49.6409 13.7748C49.1348 13.9997 49.922 14.3932 49.8095 14.843C48.685 15.0679 47.2232 15.0679 46.3236 14.6744C45.9862 14.6744 46.6047 15.3491 46.1549 15.5177C44.8055 15.9675 43.4561 15.4053 42.669 14.843C42.1067 15.1242 43.0063 15.7989 42.5003 16.08C40.5886 15.9113 39.183 15.2366 38.3396 13.9997C37.9461 14.0559 38.3396 14.8993 38.0023 15.0679C36.5404 14.9555 36.3718 13.5499 35.5846 12.8189C33.7854 15.4615 32.5485 18.6101 29.681 20.1282C29.175 20.1282 29.0625 19.6784 28.6127 19.6221C29.8497 17.7667 32.1549 17.0358 33.167 14.8993C31.8176 15.4053 30.187 18.0479 28.2754 18.0479C29.5123 15.7426 32.4923 15.1804 33.8417 12.9876C32.4923 12.9876 31.0304 16.0238 29.1188 14.8993C30.7493 13.0438 34.0666 12.8752 35.0224 10.345C33.5043 10.7386 31.8176 10.4575 31.1991 9.50167C31.2553 9.10809 32.0987 9.38922 32.2674 9.50167C31.5927 8.60207 29.7372 7.98359 30.5244 6.1844C31.1429 6.29685 31.1991 6.97155 31.3678 7.59002C31.93 6.80287 29.7935 5.0599 31.5364 4.6101C32.1549 6.12817 32.6609 7.7587 34.3477 8.26472C34.7413 7.70247 33.3356 7.42135 33.5043 6.52175C34.2915 6.4093 34.5726 6.8591 34.9099 7.19645C34.6288 6.24062 33.4481 6.07195 32.8296 5.45347C33.5605 4.44143 34.5726 5.79082 35.0786 6.12817C35.0786 5.56592 34.5164 5.62215 34.7413 4.89123C35.416 4.6101 36.3718 5.0599 36.1469 6.29685C36.2593 6.74665 36.6529 5.7346 36.9903 6.29685C36.7654 7.59002 36.5405 8.82697 35.922 9.78279C36.7091 8.77074 37.7774 8.03982 38.0023 6.46552C38.6208 6.29685 38.2272 7.14022 38.3396 7.5338C39.5204 6.1844 40.4762 4.66633 42.3316 4.04785C42.8939 4.27275 41.9943 5.5097 41.7694 6.07195ZM40.5324 9.38922C41.1509 8.88319 42.5003 8.20849 42.2754 7.47757C41.2633 8.43339 40.42 9.44544 38.7894 9.72657C38.9581 9.22054 39.9139 8.54584 39.4641 7.98359C38.8457 10.0639 36.0907 10.0639 35.3035 11.9756C35.6409 11.3571 37.2714 11.8069 38.2834 11.6382C38.0023 11.3009 37.2151 11.4133 36.8778 11.1322C38.7894 9.22054 40.6449 12.2005 42.2754 12.7065C41.6007 11.4695 39.9139 11.1884 39.1268 10.1201C42.1629 9.10809 43.9621 11.5258 45.7613 11.6944C44.7493 11.0197 43.681 10.4013 42.6127 9.78279C44.6931 9.27677 46.9983 10.6262 48.5164 11.0197C47.7854 10.6262 46.9421 10.4013 46.436 9.78279C48.3477 9.89524 50.5967 10.6262 52.171 10.4575C51.4401 10.1201 50.2593 10.1764 49.7533 9.61412C50.4842 9.44544 51.3276 9.44544 51.6649 8.93942C49.9782 8.99564 48.0103 10.1201 46.8296 9.22054C47.3919 8.99564 47.8979 8.77074 48.2352 8.37717C46.4923 8.82697 45.4802 9.95147 43.681 9.05187C44.5244 8.71452 45.93 7.92737 45.7613 7.14022C44.7493 8.48962 42.5565 9.61412 40.5324 9.38922Z" fill="#289548"></path>
    <path fill-rule="evenodd" clip-rule="evenodd" d="M10.9582 27.9999C10.5647 30.1927 12.7012 31.3172 13.2072 33.2288C10.1149 31.9356 8.03455 30.0802 7.97833 26.763C7.9221 23.5019 10.902 20.3533 10.5647 17.7107C10.5084 16.9236 9.77752 16.53 9.88997 15.9678C12.139 16.6425 13.9382 19.3975 13.5446 22.6023C13.2635 25.02 11.2956 28.1124 13.3759 30.0802C12.5325 30.1364 12.2514 28.1124 10.9582 27.9999Z" fill="#3A59A1"></path>
    <path fill-rule="evenodd" clip-rule="evenodd" d="M20.8537 30.3053C20.7975 31.4298 19.167 32.5543 18.0425 33.2852C18.6047 33.735 19.3919 33.9037 20.1228 34.1286C19.4481 34.747 17.8738 34.747 16.8055 34.4659C16.6931 35.2531 17.3115 35.2531 17.3115 35.8715C16.3557 35.9277 16.0184 35.4217 15.3999 35.1968C15.175 36.4338 15.5123 37.8956 15.3999 39.5261C15.9621 38.2892 16.6931 36.3213 17.9862 36.3775C17.5364 38.4016 15.1188 39.6386 16.2433 42.1125C17.7051 39.0201 19.3356 35.2531 23.2152 35.1406C22.6529 36.8273 20.5164 36.8273 19.7292 38.2892C20.5164 38.4579 21.8658 37.6145 22.8778 38.2892C20.5164 39.8073 17.1429 40.3695 16.8055 43.8555C14.7252 43.8555 13.7694 44.98 12.2513 45.5984C12.0264 44.1366 14.0505 43.5743 15.3999 43.1808C14.8376 42.3936 14.1067 42.5623 13.3196 42.6747C13.3758 41.9438 14.0505 41.8876 14.7252 41.8314C14.2754 40.988 13.2071 40.6506 12.9822 39.5824C13.6007 39.1888 13.9943 40.2571 14.5565 40.4257C13.0947 38.3454 11.2955 36.6024 9.66495 34.6908C7.35973 35.7029 5.67299 33.8474 2.86174 34.3535C1.96214 34.5221 1.73725 35.3093 0.444073 35.0282C0.275398 32.7229 2.97419 31.8796 4.43604 30.6988C10.2272 30.6988 11.0706 36.6587 14.7252 39.0763C14.3878 36.3775 11.5204 36.2651 11.2393 33.5101C13.1509 34.0723 13.7694 35.8715 14.5565 37.502C14.8376 36.49 14.3316 34.9157 14.7252 33.6788C13.7131 33.3976 14.2754 34.747 13.3196 34.5221C13.2071 33.8474 13.4882 33.5101 13.6569 33.1165C12.7011 31.8233 11.5766 30.6988 11.2393 28.7872C12.3075 29.5743 12.7573 30.98 14.3878 31.2049C15.3437 29.6868 15.9621 27.8876 17.7051 27.2129C17.1429 28.731 15.5123 30.1366 16.1308 32.2731C18.3798 32.2169 19.7854 31.3735 20.8537 30.3053Z" fill="#289548"></path>
    <path fill-rule="evenodd" clip-rule="evenodd" d="M8.70877 17.7671C8.48387 18.5542 8.70877 18.3293 8.87744 19.004C8.20274 18.8916 8.03407 19.3414 7.30315 19.1727C9.10234 21.7591 4.15455 21.8153 5.3915 19.1727C5.8413 19.004 6.7409 18.8354 7.13447 19.1727C7.58427 18.6667 7.86539 17.8795 8.70877 17.7671Z" fill="#C20D19"></path>
    <path fill-rule="evenodd" clip-rule="evenodd" d="M13.7132 49.4215C12.8136 49.2528 11.6891 49.7026 12.3076 50.4898C12.7574 50.04 13.6007 50.0962 13.7132 49.4215Z" fill="#289548"></path>
    <path fill-rule="evenodd" clip-rule="evenodd" d="M17.03 52.4013C15.5682 51.7266 15.0621 52.9636 14.2188 53.4696C13.2067 51.1644 15.0621 49.4776 16.2991 48.4094C15.7368 48.1845 14.8372 48.2407 14.0501 48.2407C14.4437 47.6222 13.2067 47.4536 12.6445 47.1724C11.9698 46.7226 11.9698 45.5419 10.7328 45.5981C10.6766 47.5098 12.7007 47.3411 13.7127 48.1845C11.8011 48.1845 8.93363 47.2849 8.14648 47.3411C10.0019 48.2969 11.9698 49.0841 14.9497 48.9154C12.026 50.2086 13.4316 57.574 16.6927 55.8873C17.5923 55.4375 17.9296 53.4134 17.03 52.4013Z" fill="#289548"></path>
    <path fill-rule="evenodd" clip-rule="evenodd" d="M34.7979 49.984C35.079 49.478 35.8661 48.8033 36.3721 49.1406C36.7095 49.5342 36.4846 50.3213 36.2035 50.5462C36.5408 50.9398 37.5529 50.6025 37.9464 50.8836C38.1151 51.8394 37.3842 51.9519 36.5408 51.9519C36.8219 50.4338 35.1352 50.8274 34.7979 49.984Z" fill="#C20D19"></path>
    <path fill-rule="evenodd" clip-rule="evenodd" d="M28.388 7.59032C30.1872 7.36542 31.1993 10.5702 28.8941 10.5702C29.2876 10.9076 29.625 11.3574 29.7374 11.9759C29.5125 12.9317 28.9503 13.4939 27.6571 13.3815C26.87 12.8755 27.2073 10.4016 25.5768 11.3012C26.0828 12.0883 27.2635 12.5381 26.8137 13.7188C25.8017 14.6747 24.0025 14.1686 23.8338 12.8755C23.9463 11.9196 25.1832 11.9759 25.2394 10.9638C25.1832 10.7951 25.0708 10.7951 25.0708 10.6265C24.115 10.514 24.2274 11.4136 24.0025 12.0321C23.3278 12.3694 22.4282 12.2008 21.9222 11.8634C21.7535 11.4136 21.6973 10.7951 21.7535 10.1204C22.2033 9.83931 22.5407 9.50196 23.1591 9.44574C23.5527 9.72686 23.8901 10.008 24.2274 10.2891C24.7897 10.4578 24.5648 9.83931 24.9021 9.78309C24.9021 8.99594 23.7776 8.93972 23.1591 9.27706C19.9543 7.47787 25.5768 4.32927 25.0708 8.93972C25.7455 8.93972 26.0828 8.54614 26.3077 8.09634C26.2515 7.53409 25.633 7.47787 25.633 6.85939C25.4643 4.10437 30.1872 5.56622 28.388 7.59032ZM27.3198 9.33329C27.4322 8.93972 27.7133 8.65859 27.6571 8.09634C27.3198 8.09634 26.9824 8.09634 26.5888 8.09634C26.2515 8.77104 26.9262 8.99594 27.3198 9.33329ZM27.1511 11.0763C27.6009 10.8514 28.2756 10.7951 28.7254 10.5702C27.9945 10.6265 27.9945 9.89554 27.3198 9.89554C27.2073 10.2329 26.8137 10.7389 27.1511 11.0763Z" fill="#C20D19"></path>
    <path fill-rule="evenodd" clip-rule="evenodd" d="M7.3032 44.5864C7.02207 44.5864 6.74095 44.5864 6.45982 44.5864C6.23492 45.5985 7.02207 45.6547 7.13452 46.3294C6.34737 49.8716 2.35541 45.486 5.89757 44.9238C5.89757 44.3615 5.44778 44.3053 5.0542 44.2491C5.11043 46.7792 1.00601 47.0041 2.46786 43.7431C3.14255 43.2933 3.9297 43.6306 4.49195 43.8555C4.88553 43.7431 4.66063 42.7872 4.49195 42.6186C2.91766 44.0804 0.387535 42.225 2.07428 40.5382C2.63653 40.5945 3.36745 40.4258 3.64858 40.7069C2.86143 38.964 5.7289 37.7832 6.45982 39.47C6.6285 40.4258 6.06625 40.5382 5.9538 41.2129C6.12247 41.6627 6.6285 41.6627 7.19075 41.719C7.02207 40.7069 6.6285 39.976 7.19075 39.1326C8.42769 38.6828 9.38352 39.0764 9.60842 39.8073C10.1144 41.4378 8.2028 41.6627 7.35942 42.3937C8.42769 43.6306 8.6526 41.6065 9.60842 41.5503C11.6325 41.3816 12.0823 44.1929 9.60842 44.3615C10.0582 45.4298 9.49597 46.1607 9.10239 46.7792C7.64055 46.9479 6.6285 45.9358 7.3032 44.5864ZM4.49195 42.2812C5.11043 42.2812 5.16665 41.7752 5.33533 41.4378C4.8293 41.3254 4.43573 41.1567 3.9297 41.1005C4.09838 41.5503 4.1546 42.1125 4.49195 42.2812ZM7.47187 44.1929C7.92167 43.7993 8.82127 44.3053 9.04617 44.0242C8.70882 43.9117 8.59637 43.5744 8.54014 43.1808C7.64055 43.0121 7.35942 43.4057 7.47187 44.1929Z" fill="#C20D19"></path>
    <path fill-rule="evenodd" clip-rule="evenodd" d="M23.3281 42.1123C23.2719 42.5621 23.6092 42.6745 23.8341 42.787C24.0028 42.6745 23.6654 41.7749 24.0028 41.3814C25.1835 40.2569 27.545 41.9436 26.0831 42.9556C26.7016 43.5179 27.0952 44.9235 26.2518 45.542C25.5209 45.4858 25.6333 44.6424 25.1835 44.305C26.4767 45.6544 24.2277 48.9155 22.7658 46.554C22.6534 45.8793 22.9345 45.542 23.1032 45.1484C22.8221 45.1484 22.5409 45.1484 22.2598 45.1484C22.9345 46.6665 21.8662 48.1846 20.5168 47.5661C20.2357 47.1163 19.8984 46.048 20.3482 45.4858C18.549 45.9356 17.9305 43.9677 18.9425 43.0681C19.7297 43.1243 20.2919 43.4617 21.0229 43.5741C21.3602 43.5741 21.1353 43.0119 21.3602 42.8994C17.7618 44.305 19.3361 38.6263 21.6976 40.9878C21.7538 41.6063 21.6413 41.9436 21.5289 42.3934C21.5851 42.6183 22.4847 42.1685 22.7658 42.0561C22.3723 41.4938 21.6976 41.1565 21.6976 40.1444C23.3843 38.3452 25.5209 41.044 23.3281 42.1123ZM22.0911 43.5179C22.316 43.6866 22.5409 43.7428 22.9345 43.6866C23.047 43.1243 22.1474 42.9556 22.0911 43.5179ZM20.5168 45.4295C21.0791 45.542 20.8542 44.9235 21.3602 45.0922C21.5851 45.0922 21.5851 45.3171 21.8662 45.2609C21.81 44.7548 21.2478 44.6986 21.0229 44.4175C21.1915 45.036 20.6293 44.9797 20.5168 45.4295Z" fill="#3A59A1"></path>
    <path fill-rule="evenodd" clip-rule="evenodd" d="M50.147 67.6948C49.8096 68.2009 51.1028 68.5944 50.9904 69.4378C48.7414 69.2129 47.2233 68.2571 45.7615 67.1888C45.4803 67.9197 46.661 68.7069 46.4361 70.0001C45.0868 69.2691 43.8498 68.4258 42.7815 67.4137C42.4442 67.6386 42.5004 68.3133 42.2755 68.6507C41.151 68.0884 40.9823 66.5703 40.1952 65.6707C39.9703 65.8956 39.8578 66.2892 39.8578 66.739C39.2956 66.1768 39.1831 64.6587 39.5205 63.7591C39.1831 62.9719 37.5526 63.478 37.6088 62.3535C39.5205 62.6346 41.9944 63.9278 43.1751 65.5021C42.9502 64.8836 42.4442 64.49 41.9382 64.0964C43.8498 63.3655 45.4241 64.4338 46.2675 65.3334C46.5486 64.8274 45.0305 64.6025 45.0305 63.7591C47.2233 62.6346 48.0105 64.9398 49.5847 65.5021C49.3598 64.3776 47.898 64.5462 47.6731 63.4217C49.5847 62.2972 50.8217 63.984 52.396 64.2651C51.8337 63.7029 50.9904 63.4217 50.3157 63.0282C51.2153 62.0161 52.9582 62.4659 54.3076 62.6908C54.4201 62.0161 53.1269 62.747 53.2394 62.0161C54.7012 61.7912 55.5446 60.9479 56.894 60.6105C55.6008 60.4418 54.1952 61.6225 52.7333 61.8474C53.2956 61.2852 53.9141 60.8354 54.4763 60.2731C53.2394 60.3856 52.4522 62.4097 50.4843 62.3535C50.4281 61.3414 51.3277 61.3414 51.3277 60.4418C50.7092 60.4418 50.147 61.9599 49.7534 62.6908C48.5165 62.4659 48.0667 63.0844 46.9422 63.0282C47.4482 62.241 48.3478 61.8474 48.6851 60.9479C47.5606 61.1727 46.4924 63.8715 44.6932 63.3655C45.0305 62.5784 45.5928 61.9599 46.0988 61.2852C45.4241 61.3976 44.5807 62.9157 43.8498 63.5342C43.4 63.4217 42.4442 63.7591 42.2755 63.3655C41.4321 63.3093 42.6691 62.8595 42.6129 62.5221C41.9944 62.5784 41.9944 63.3093 41.2072 63.1968C40.5888 62.8595 40.9261 62.6346 40.139 63.0282C39.7454 62.1286 39.1831 60.3294 40.139 59.5422C40.5888 59.4298 40.4763 59.8796 40.8137 59.8796C40.9823 57.6868 42.7253 58.1366 43.6249 56.731C43.9623 56.8434 44.0185 57.0121 43.7936 57.237C44.6932 57.0683 44.8619 56.225 45.8739 56.1687C45.8177 56.5623 45.5928 56.8434 45.7052 57.4057C46.7735 57.0683 47.4482 54.8756 49.3598 54.8193C49.3598 55.494 49.3598 56.225 49.3598 56.8997C50.2032 56.1687 51.0466 54.5382 52.3398 54.8193C52.4522 55.5503 52.0586 55.7189 52.1711 56.3936C52.6771 56.3936 53.408 55.2129 54.7574 55.5503C54.8137 56.2812 54.5888 56.6748 54.4201 57.1246C55.5446 56.731 56.8378 55.8314 58.4121 56.4499C58.2434 57.2932 57.8498 57.8555 57.5687 58.5302C58.5245 58.7551 59.9864 58.4177 61.0546 58.8675C60.5486 61.0041 58.8619 62.0161 57.2313 63.0282C57.4 63.7591 58.1872 63.9278 58.2996 64.7711C57.6249 65.3334 55.7133 65.2209 54.9823 64.7711C54.9823 65.5583 55.9944 65.3896 55.8257 66.3454C54.8137 66.2892 54.139 66.6266 53.0145 66.5141C53.0145 67.3013 53.8016 67.3575 53.6892 68.2571C52.396 68.2571 50.9341 68.3133 50.147 67.6948Z" fill="#289548"></path>
    <path d="M56.501 45.767C56.4448 45.767 56.4448 45.767 56.3886 45.767C56.3323 45.767 56.3323 45.767 56.2761 45.767C56.2199 45.767 56.2199 45.767 56.1637 45.7107C56.1074 45.6545 56.1074 45.6545 56.0512 45.6545L56.1074 45.2047C56.1637 45.2047 56.1637 45.2609 56.2199 45.2609C56.2761 45.2609 56.3323 45.3172 56.3886 45.3172C56.4448 45.3172 56.5572 45.3172 56.6135 45.2609C56.6697 45.2047 56.7259 45.1485 56.7821 45.036L55.7139 42.8433H56.3323L57.0633 44.4176L57.738 42.8433H58.3564L57.3444 45.0923C57.2882 45.2047 57.2319 45.3172 57.1757 45.4296C57.1195 45.5421 57.0633 45.5983 57.007 45.6545C56.9508 45.7107 56.8946 45.767 56.7821 45.767C56.6697 45.767 56.6135 45.767 56.501 45.767Z" fill="white"></path>
    <path d="M59.256 44.0241H59.4809L60.3805 42.7871H61.0552L59.987 44.1927L61.1677 45.7108H60.5492L59.5934 44.4739H59.3122V45.7108H58.75V42.7871H59.3122V44.0241H59.256Z" fill="white"></path>
    <path d="M61.3926 45.7108V42.7871H62.6295C62.742 42.7871 62.9106 42.8433 63.0231 42.8996C63.1355 42.9558 63.248 43.012 63.3042 43.1245C63.3604 43.2369 63.4729 43.3494 63.4729 43.4618C63.5291 43.5743 63.5291 43.6867 63.5291 43.7992C63.5291 43.9116 63.5291 44.0241 63.4729 44.1365C63.4167 44.249 63.3604 44.3614 63.3042 44.4739C63.248 44.5863 63.1355 44.6425 63.0231 44.6988C62.9106 44.755 62.7982 44.755 62.6295 44.755H61.9548V45.767H61.3926V45.7108ZM61.9548 44.249H62.6295C62.742 44.249 62.7982 44.1927 62.9106 44.1365C62.9669 44.0241 63.0231 43.9116 63.0231 43.7992C63.0231 43.7429 63.0231 43.6305 62.9669 43.5743C62.9669 43.518 62.9106 43.4618 62.8544 43.4056C62.7982 43.3494 62.7982 43.3494 62.742 43.2931C62.6857 43.2931 62.6295 43.2369 62.5733 43.2369H61.9548V44.249Z" fill="white"></path>
    <path d="M64.5976 42.7871H65.1036L66.2281 45.7108H65.6658L65.3847 44.9799H64.3727L64.0915 45.7108H63.5293L64.5976 42.7871ZM65.2723 44.5863L64.8787 43.4056L64.4289 44.5863H65.2723Z" fill="white"></path>
    <path d="M66.2275 42.4499V41.9438H66.6773V42.4499H66.2275ZM66.5649 45.7109V42.7872H67.1271V45.7109H66.5649ZM67.0147 42.4499V41.9438H67.4645V42.4499H67.0147Z" fill="white"></path>
    <path d="M70.22 42.7871V45.7108H69.6577V44.4739H68.3083V45.7108H67.7461V42.7871H68.3083V43.9678H69.6577V42.7871H70.22Z" fill="white"></path>
    <path d="M70.6699 44.2489C70.6699 44.0802 70.7261 43.9115 70.7824 43.7429C70.8386 43.5742 70.951 43.4055 71.0635 43.2931C71.1759 43.1806 71.3446 43.0682 71.5133 42.9557C71.682 42.8433 71.9069 42.8433 72.1318 42.8433C72.4129 42.8433 72.6378 42.8995 72.8065 43.0119C73.0314 43.1244 73.1438 43.2931 73.2563 43.4617L72.8065 43.7429C72.7502 43.6866 72.694 43.5742 72.694 43.518C72.6378 43.4617 72.5816 43.4055 72.5253 43.4055C72.4691 43.3493 72.4129 43.3493 72.3004 43.3493C72.2442 43.3493 72.188 43.3493 72.0755 43.3493C71.9069 43.3493 71.7944 43.4055 71.682 43.4617C71.5695 43.518 71.5133 43.5742 71.4008 43.6866C71.3446 43.7991 71.2884 43.9115 71.2322 44.024C71.1759 44.1364 71.1759 44.2489 71.1759 44.3613C71.1759 44.4738 71.1759 44.6425 71.2322 44.7549C71.2884 44.8674 71.3446 44.9798 71.4008 45.0923C71.4571 45.2047 71.5695 45.2609 71.682 45.3172C71.7944 45.3734 71.9069 45.3734 72.0193 45.3734C72.0755 45.3734 72.1318 45.3734 72.2442 45.3734C72.3004 45.3734 72.3567 45.3172 72.4691 45.3172C72.5253 45.2609 72.5816 45.2609 72.6378 45.2047C72.694 45.1485 72.7502 45.0923 72.7502 44.9798L73.2 45.2609C73.1438 45.3734 73.0876 45.4858 72.9751 45.5421C72.8627 45.5983 72.8065 45.7107 72.694 45.767C72.5816 45.8232 72.4691 45.8794 72.3567 45.8794C72.2442 45.9356 72.1318 45.9356 71.9631 45.9356C71.7382 45.9356 71.5695 45.8794 71.4008 45.8232C71.2322 45.7107 71.0635 45.5983 70.951 45.4858C70.8386 45.3172 70.7261 45.2047 70.6699 44.9798C70.7261 44.6425 70.6699 44.4176 70.6699 44.2489Z" fill="white"></path>
    <path d="M73.7056 42.7871H74.2679V43.8554H74.8301C74.9988 43.8554 75.1113 43.8554 75.2237 43.9116C75.3362 43.9678 75.4486 44.0241 75.5611 44.0803C75.6735 44.1365 75.7297 44.249 75.786 44.3614C75.8422 44.4739 75.8422 44.5863 75.8422 44.755C75.8422 44.9237 75.8422 45.0361 75.786 45.1486C75.7297 45.261 75.6735 45.3735 75.5611 45.4297C75.4486 45.4859 75.3362 45.5984 75.2237 45.5984C75.1113 45.6546 74.9426 45.6546 74.8301 45.6546H73.6494V42.7871H73.7056ZM74.2679 45.261H74.7739C74.9426 45.261 75.055 45.2048 75.1113 45.1486C75.1675 45.0361 75.2237 44.9237 75.2237 44.8112C75.2237 44.6425 75.1675 44.5301 75.1113 44.4739C75.055 44.3614 74.8864 44.3614 74.7739 44.3614H74.2679V45.261Z" fill="white"></path>
    <path d="M76.8542 44.0241H77.0791L77.9787 42.7871H78.6534L77.5852 44.1927L78.7659 45.7108H78.0912L77.1354 44.4739H76.8542V45.7108H76.292V42.7871H76.8542V44.0241Z" fill="white"></path>
    <path d="M79.8339 42.7871H80.3399L81.4644 45.7108H80.9022L80.621 44.9799H79.609L79.3279 45.7108H78.7656L79.8339 42.7871ZM80.5086 44.5863L80.115 43.4056L79.6652 44.5863H80.5086Z" fill="white"></path>
    <path d="M83.6015 42.7871H84.1075L85.232 45.7108H84.6698L84.3886 44.9799H83.3766L83.0955 45.7108H82.5332L83.6015 42.7871ZM84.2762 44.5863L83.8826 43.4056L83.4328 44.5863H84.2762Z" fill="white"></path>
    <path d="M85.2881 44.2489C85.2881 44.0802 85.3443 43.9115 85.4005 43.7429C85.4568 43.5742 85.5692 43.4055 85.6817 43.2931C85.7941 43.1806 85.9628 43.0682 86.1315 42.9557C86.3001 42.8433 86.525 42.8433 86.7499 42.8433C87.0311 42.8433 87.256 42.8995 87.4809 43.0119C87.7058 43.1244 87.8182 43.2931 87.9307 43.4617L87.4809 43.7429C87.4246 43.6866 87.3684 43.5742 87.3122 43.518C87.256 43.4617 87.1997 43.4055 87.1435 43.4055C87.0873 43.3493 87.0311 43.3493 86.9186 43.3493C86.8624 43.3493 86.8062 43.3493 86.6937 43.3493C86.525 43.3493 86.4126 43.4055 86.3001 43.4617C86.1877 43.518 86.1315 43.5742 86.019 43.6866C85.9628 43.7991 85.9066 43.9115 85.8503 44.024C85.7941 44.1364 85.7941 44.2489 85.7941 44.3613C85.7941 44.4738 85.7941 44.6425 85.8503 44.7549C85.9066 44.8674 85.9628 44.9798 86.019 45.0923C86.0752 45.2047 86.1877 45.2609 86.3001 45.3172C86.4126 45.3734 86.525 45.3734 86.6375 45.3734C86.6937 45.3734 86.7499 45.3734 86.8624 45.3734C86.9186 45.3734 86.9748 45.3172 87.0873 45.3172C87.1435 45.2609 87.1997 45.2609 87.256 45.2047C87.3122 45.1485 87.3684 45.0923 87.3684 44.9798L87.8182 45.2609C87.762 45.3734 87.7058 45.4858 87.5933 45.5421C87.4809 45.5983 87.4246 45.7107 87.3122 45.767C87.1997 45.8232 87.0873 45.8794 86.9748 45.8794C86.8624 45.9356 86.7499 45.9356 86.6375 45.9356C86.4126 45.9356 86.2439 45.8794 86.0752 45.8232C85.9066 45.7107 85.7379 45.5983 85.6254 45.4858C85.513 45.3172 85.4005 45.2047 85.3443 44.9798C85.2881 44.6425 85.2881 44.4176 85.2881 44.2489Z" fill="white"></path>
    <path d="M89.5052 45.767C89.2803 45.767 89.1117 45.7108 88.943 45.6546C88.7743 45.5984 88.6056 45.4859 88.4932 45.3172C88.3807 45.2048 88.2683 45.0361 88.2121 44.8112C88.1558 44.6425 88.0996 44.4739 88.0996 44.249C88.0996 44.0803 88.1558 43.8554 88.2121 43.6867C88.2683 43.518 88.3807 43.3494 88.4932 43.2369C88.6056 43.1245 88.7743 43.012 88.943 42.8996C89.1117 42.8433 89.3366 42.7871 89.5052 42.7871C89.7301 42.7871 89.8988 42.8433 90.0675 42.8996C90.2362 43.012 90.4048 43.1245 90.5173 43.2369C90.6297 43.4056 90.7422 43.518 90.7984 43.7429C90.8546 43.9116 90.9109 44.0803 90.9109 44.3052C90.9109 44.4739 90.8546 44.6988 90.7984 44.8674C90.7422 45.0361 90.6297 45.2048 90.5173 45.3172C90.4048 45.4297 90.2362 45.5421 90.0675 45.6546C89.8988 45.7108 89.7301 45.767 89.5052 45.767ZM88.6619 44.249C88.6619 44.3614 88.6619 44.4739 88.7181 44.6425C88.7743 44.755 88.8305 44.8674 88.8868 44.9799C88.943 45.0923 89.0554 45.1486 89.1679 45.2048C89.2803 45.261 89.3928 45.261 89.5052 45.261C89.6177 45.261 89.7864 45.2048 89.8988 45.1486C90.0113 45.0923 90.0675 45.0361 90.1799 44.9237C90.2362 44.8112 90.2924 44.6988 90.3486 44.5863C90.4048 44.4739 90.4048 44.3614 90.4048 44.249C90.4048 44.1365 90.4048 44.0241 90.3486 43.8554C90.2924 43.7429 90.2362 43.6305 90.1799 43.518C90.1237 43.4056 90.0113 43.3494 89.8988 43.2931C89.7864 43.2369 89.6739 43.2369 89.5615 43.2369C89.449 43.2369 89.2803 43.2931 89.1679 43.3494C89.0554 43.4056 88.943 43.4618 88.8868 43.5743C88.8305 43.6867 88.7743 43.7992 88.7181 43.9116C88.6619 44.0241 88.6619 44.1365 88.6619 44.249Z" fill="white"></path>
    <path d="M93.6098 45.7108H91.417V42.7871H91.9792V45.2048H93.1037V42.7871H93.666V45.2048H94.1158V46.4417H93.5535V45.7108H93.6098Z" fill="white"></path>
    <path d="M94.5088 45.7108V42.7871H95.071V45.7108H94.5088Z" fill="white"></path>
    <path d="M96.5898 42.7871H97.0958L98.2203 45.7108H97.658L97.3769 44.9799H96.3649L96.0837 45.7108H95.5215L96.5898 42.7871ZM97.2082 44.5863L96.8147 43.4056L96.3649 44.5863H97.2082Z" fill="white"></path>
    <path d="M100.75 45.7108H98.5576V42.7871H99.1199V45.2048H100.244V42.7871H100.807V45.2048H101.256V46.4417H100.694V45.7108H100.75Z" fill="white"></path>
    <path d="M101.649 45.7108V42.7871H102.212V45.7108H101.649Z" fill="white"></path>
    <path d="M104.405 45.7108V44.6425H103.955L103.281 45.7108H102.662L103.393 44.5301C103.224 44.4739 103.112 44.3614 102.999 44.1927C102.887 44.0241 102.831 43.8554 102.831 43.6867C102.831 43.5743 102.831 43.4618 102.887 43.3494C102.943 43.2369 102.999 43.1245 103.056 43.0682C103.112 42.9558 103.224 42.8996 103.337 42.8433C103.449 42.7871 103.562 42.7871 103.73 42.7871H104.967V45.7108H104.405ZM104.405 43.2931H103.787C103.73 43.2931 103.674 43.2931 103.618 43.3494C103.562 43.3494 103.505 43.4056 103.505 43.4618C103.449 43.518 103.449 43.518 103.393 43.5743C103.393 43.6305 103.337 43.6867 103.337 43.7429C103.337 43.8554 103.393 43.9678 103.449 44.0803C103.505 44.1365 103.618 44.1927 103.73 44.1927H104.349V43.2931H104.405Z" fill="white"></path>
    <path d="M108.902 44.9798C108.902 45.0923 108.902 45.2047 108.846 45.3172C108.79 45.4296 108.734 45.4858 108.621 45.5421C108.509 45.5983 108.453 45.6545 108.34 45.7107C108.228 45.767 108.115 45.767 107.947 45.767H106.541V42.8433H108.115C108.228 42.8433 108.284 42.8433 108.396 42.8995C108.453 42.9557 108.565 43.0119 108.621 43.0682C108.678 43.1244 108.734 43.2368 108.734 43.2931C108.79 43.4055 108.79 43.4617 108.79 43.5742C108.79 43.7429 108.734 43.8553 108.678 43.9678C108.621 44.0802 108.509 44.1927 108.34 44.2489C108.509 44.3051 108.621 44.3613 108.734 44.53C108.902 44.6425 108.902 44.8111 108.902 44.9798ZM107.103 43.2931V44.024H107.89C108.003 44.024 108.059 43.9678 108.115 43.9115C108.172 43.8553 108.228 43.7429 108.228 43.6304C108.228 43.518 108.172 43.4055 108.115 43.3493C108.059 43.2931 108.003 43.2368 107.89 43.2368H107.103V43.2931ZM108.34 44.8674C108.34 44.8111 108.34 44.7549 108.34 44.6987C108.34 44.6425 108.284 44.5862 108.284 44.5862C108.228 44.53 108.228 44.53 108.172 44.4738C108.115 44.4738 108.059 44.4176 108.059 44.4176H107.159V45.2047H108.003C108.059 45.2047 108.115 45.2047 108.172 45.1485C108.228 45.1485 108.284 45.0923 108.284 45.0923C108.34 45.036 108.34 45.036 108.34 44.9798C108.34 44.9798 108.34 44.9236 108.34 44.8674Z" fill="white"></path>
    <path d="M110.421 45.7108V42.7871H110.983V45.7108H110.421Z" fill="white"></path>
    <path d="M111.433 44.2489C111.433 44.0802 111.489 43.9115 111.545 43.7429C111.601 43.5742 111.714 43.4055 111.826 43.2931C111.939 43.1806 112.107 43.0682 112.276 42.9557C112.445 42.8433 112.67 42.8433 112.894 42.8433C113.176 42.8433 113.4 42.8995 113.625 43.0119C113.85 43.1244 113.963 43.2931 114.075 43.4617L113.625 43.7429C113.569 43.6866 113.513 43.5742 113.457 43.518C113.4 43.4617 113.344 43.4055 113.288 43.4055C113.232 43.3493 113.176 43.3493 113.063 43.3493C113.007 43.3493 112.951 43.3493 112.838 43.3493C112.67 43.3493 112.557 43.4055 112.445 43.4617C112.332 43.518 112.276 43.5742 112.164 43.6866C112.107 43.7991 112.051 43.9115 111.995 44.024C111.939 44.1364 111.939 44.2489 111.939 44.3613C111.939 44.4738 111.939 44.6425 111.995 44.7549C112.051 44.8674 112.107 44.9798 112.164 45.0923C112.22 45.2047 112.332 45.2609 112.445 45.3172C112.557 45.3734 112.67 45.3734 112.782 45.3734C112.838 45.3734 112.894 45.3734 113.007 45.3734C113.063 45.3734 113.176 45.3172 113.232 45.3172C113.288 45.2609 113.344 45.2609 113.4 45.2047C113.457 45.1485 113.513 45.0923 113.513 44.9798L113.963 45.2609C113.907 45.3734 113.85 45.4858 113.738 45.5421C113.625 45.5983 113.569 45.7107 113.457 45.767C113.344 45.8232 113.232 45.8794 113.119 45.8794C113.007 45.9356 112.894 45.9356 112.782 45.9356C112.557 45.9356 112.388 45.8794 112.22 45.8232C112.051 45.7107 111.882 45.5983 111.77 45.4858C111.658 45.3172 111.545 45.2047 111.489 44.9798C111.489 44.6425 111.433 44.4176 111.433 44.2489Z" fill="white"></path>
    <path d="M114.469 42.7871H116.886V45.7108H116.324V43.2931H115.031V45.7108H114.469V42.7871Z" fill="white"></path>
    <path d="M118.405 42.7871H118.911L120.035 45.7108H119.473L119.136 44.9799H118.124L117.843 45.7108H117.28L118.405 42.7871ZM119.023 44.5863L118.63 43.4056L118.18 44.5863H119.023Z" fill="white"></path>
    <path d="M122.79 42.7871V45.7108H122.228V44.4739H120.879V45.7108H120.316V42.7871H120.879V43.9678H122.228V42.7871H122.79Z" fill="white"></path>
    <path d="M123.465 45.7108V42.7871H124.027V45.7108H123.465Z" fill="white"></path>
    <path d="M124.309 42.4499V41.9438H124.758V42.4499H124.309ZM124.646 45.7109V42.7872H125.208V45.7109H124.646ZM125.096 42.4499V41.9438H125.546V42.4499H125.096Z" fill="white"></path>
    <path d="M39.5769 41.3815H41.3199C40.5889 35.7028 43.0628 37.1084 46.099 21.4779C45.7054 20.241 45.2556 19.1165 44.7496 18.1606H49.9223C49.3038 29.6305 49.3038 34.0161 52.6773 41.4377H54.0267C55.8259 43.8554 53.6894 45.8233 50.7094 47.2851C49.36 47.7912 49.7536 48.5783 49.5287 48.4659C49.0789 48.2972 48.5729 47.51 49.3038 46.6104C50.3159 45.261 50.7094 44.0803 49.9785 42.506H43.6251C42.8942 44.0803 43.2877 45.261 44.2998 46.6104C44.9745 47.5663 44.5247 48.2972 44.0749 48.4659C43.85 48.5783 44.2436 47.7912 42.8942 47.2851C39.9142 45.7671 37.7777 43.7992 39.5769 41.3815ZM46.2114 41.3815H48.0106C48.2918 35.4779 47.9544 29.3494 46.8299 24.3454C43.0628 35.253 45.0869 39.0201 46.2114 41.3815Z" fill="white"></path>
    <path d="M63.6975 31.767C63.6975 31.9919 63.8662 32.1043 64.0349 31.8232C67.8582 24.6264 67.4084 23.8393 66.1714 21.6465H69.8823C71.9064 25.6385 64.3722 29.8553 64.4284 33.4537C64.4284 34.4658 66.3963 35.9276 67.2397 36.265C69.6574 37.3332 71.3441 38.9638 69.8823 40.8754H66.1714C67.9706 38.4577 66.6774 37.0521 64.0349 34.8593C63.81 34.6907 63.6975 34.8031 63.6975 35.028C63.8662 37.4457 64.6533 39.3573 65.0469 40.8754H60.9425C61.3923 39.3011 62.1232 37.3895 62.2919 35.028C62.2919 34.8031 62.1232 34.6907 61.9545 34.8593C59.3682 37.0521 58.075 38.4577 59.818 40.8754H56.1634C54.7015 38.9638 56.3883 37.3332 58.806 36.265C59.6493 35.9276 61.561 34.4095 61.6172 33.4537C61.6734 29.8553 54.1393 25.6385 56.1634 21.6465H59.8742C58.6373 23.8393 58.1875 24.5702 62.0108 31.8232C62.1794 32.1043 62.3481 31.9919 62.3481 31.767C62.5168 29.9678 61.6734 23.5581 60.9987 21.6465C62.1232 21.6465 63.6413 21.6465 65.1031 21.6465C64.3722 23.5581 63.4726 29.9678 63.6975 31.767Z" fill="white"></path>
    <path d="M77.1914 28.787C79.609 29.518 81.2958 30.6425 79.8339 31.9356H76.1231C77.8098 29.2931 75.3922 29.5742 74.9986 28.787C74.8299 32.4979 75.3922 36.4336 76.2355 40.0883H78.2596C78.8219 38.8513 79.1592 37.0521 78.4845 35.8152C78.0347 34.9718 78.1472 33.7911 78.5408 33.6786C78.7094 33.6224 78.8781 34.6907 79.609 35.2529C81.0709 36.4336 82.3078 38.6826 81.4645 40.8754H72.2998C74.1552 35.2529 73.5368 26.8192 72.2998 21.6465H81.1833C82.6452 23.5581 80.9022 25.1324 78.5408 26.2569C77.4725 26.6505 77.8098 27.269 77.6412 27.2128C77.3038 27.0441 76.9102 26.4818 77.4725 25.6947C78.3159 24.6264 78.597 23.6706 78.0347 22.4336H76.2355C75.6733 23.8955 75.336 25.4136 75.1673 27.0441C75.0548 28.3372 76.348 28.5059 77.1914 28.787Z" fill="white"></path>
    <path d="M83.7139 40.8754C85.5693 35.2529 84.9508 26.8192 83.7139 21.6465H92.5974C94.0593 23.5581 92.3163 25.1324 89.9548 26.2569C88.3805 26.9879 86.6938 28.8433 86.4689 30.7549C86.3002 32.5541 87.1436 38.9638 87.8183 40.8754H83.7139ZM86.75 27.6625C89.0552 25.6947 90.2922 24.4015 89.3926 22.4336H87.5372C87.0874 23.783 86.5251 25.4698 86.4127 27.4939C86.3564 27.7188 86.6376 27.8874 86.75 27.6625Z" fill="white"></path>
    <path d="M99.6816 28.787C102.099 29.518 103.786 30.6425 102.324 31.9356H98.6133C100.3 29.2931 97.8824 29.5742 97.4888 28.787C97.3202 32.4979 97.8824 36.4336 98.7258 40.0883H100.75C101.312 38.8513 101.649 37.0521 100.975 35.8152C100.525 34.9718 100.637 33.7911 101.031 33.6786C101.2 33.6224 101.368 34.6907 102.099 35.2529C103.561 36.4336 104.798 38.6826 103.955 40.8754H94.79C96.6455 35.2529 96.027 26.8192 94.79 21.6465H103.674C105.135 23.5581 103.392 25.1324 101.031 26.2569C99.9627 26.6505 100.3 27.269 100.131 27.2128C99.7941 27.0441 99.4005 26.4818 99.9627 25.6947C100.806 24.6264 101.087 23.6706 100.525 22.4336H98.6696C98.1073 23.8955 97.77 25.4136 97.6013 27.0441C97.5451 28.3372 98.8382 28.5059 99.6816 28.787Z" fill="white"></path>
    <path d="M109.971 24.2891C109.633 23.277 109.296 22.4336 108.902 21.6465H113.007C112.501 31.1485 112.501 34.522 115.537 40.8754H111.433C111.77 35.9276 111.489 30.6987 110.589 26.5381C107.103 36.5461 109.802 38.9638 110.421 40.8754H106.316C105.417 35.3654 107.497 37.3895 109.971 24.2891Z" fill="white"></path>
    <path d="M119.866 40.8754C119.529 40.8754 118.967 40.7629 118.854 40.538C119.192 40.032 118.236 38.5702 117.167 35.6465C115.987 32.3292 116.38 28.1686 118.18 25.1887C119.079 23.5581 119.585 22.3212 118.967 21.6465H121.834C122.171 21.6465 122.734 21.7589 122.846 21.9838C122.509 22.4899 123.465 23.9517 124.533 26.8754C125.714 30.1927 125.32 34.3533 123.521 37.3332C122.621 38.9638 122.115 40.2007 122.734 40.8754H119.866ZM119.079 25.6947C116.043 31.5983 120.597 34.9718 121.665 38.514C122.003 38.0642 122.34 37.5019 122.678 36.8834C125.714 30.9798 121.159 27.6063 120.091 24.0642C119.698 24.514 119.36 25.0762 119.079 25.6947Z" fill="white"></path>
  </g>
  <defs>
    <clipPath id="clip0_507_6287">
      <rect width="125.1" height="70" fill="white" transform="translate(0.5)"></rect>
    </clipPath>
  </defs>
</svg>
