<?xml version="1.0" encoding="UTF-8"?>
<svg xmlns="http://www.w3.org/2000/svg" width="25" height="24" viewBox="0 0 25 24" fill="none">
  <g clip-path="url(#clip0_507_6428)">
    <path d="M17.6769 1.64697H7.32393C4.46505 1.64697 2.14746 3.96456 2.14746 6.82344V17.1764C2.14746 20.0353 4.46505 22.3529 7.32393 22.3529H17.6769C20.5358 22.3529 22.8533 20.0353 22.8533 17.1764V6.82344C22.8533 3.96456 20.5358 1.64697 17.6769 1.64697Z" stroke="#FFE711" stroke-width="1.5" stroke-linecap="round" stroke-linejoin="round"></path>
    <path d="M12.4995 15.8824C14.6437 15.8824 16.3819 14.1442 16.3819 12C16.3819 9.85586 14.6437 8.11768 12.4995 8.11768C10.3554 8.11768 8.61719 9.85586 8.61719 12C8.61719 14.1442 10.3554 15.8824 12.4995 15.8824Z" stroke="#FFE711" stroke-width="1.5" stroke-linecap="round" stroke-linejoin="round"></path>
    <path d="M18.3232 6.17627V6.17727" stroke="#FFE711" stroke-width="1.5" stroke-linecap="round" stroke-linejoin="round"></path>
  </g>
  <defs>
    <clipPath id="clip0_507_6428">
      <rect width="24" height="24" fill="#FFE711" transform="translate(0.5)"></rect>
    </clipPath>
  </defs>
</svg>
